<?xml version="1.0" encoding="UTF-8"?>
<svg width="512px" height="512px" viewBox="0 0 512 512" version="1.1" xmlns="http://www.w3.org/2000/svg" xmlns:xlink="http://www.w3.org/1999/xlink">
    <title>logo</title>
    <g id="Page-1" stroke="none" stroke-width="1" fill="none" fill-rule="evenodd">
        <g id="Desktop-HD" transform="translate(-437.000000, -352.000000)" fill="#FFFFFF" fill-rule="nonzero">
            <g id="logo" transform="translate(437.000000, 352.000000)">
                <path d="M391.509,241.514 C395.194,233.612 395.58,224.748 392.599,216.555 C389.617,208.362 383.622,201.82 375.721,198.136 C367.819,194.452 358.955,194.064 350.761,197.046 L299.657,215.647 L233.498,178.932 C231.616,177.887 229.376,177.702 227.35,178.422 L187.253,192.654 C184.794,193.527 182.966,195.614 182.425,198.167 C181.884,200.72 182.708,203.37 184.602,205.165 L224.508,243 L182.902,258.144 L162.231,245.307 C160.275,244.092 157.871,243.845 155.709,244.63 L101.075,264.515 C98.509,265.45 96.652,267.705 96.23,270.404 C95.808,273.103 96.887,275.818 99.046,277.491 L166.59,329.829 C167.924,330.863 169.545,331.4 171.185,331.4 C172.047,331.4 172.915,331.251 173.749,330.948 L283.105,291.145 C286.997,289.728 289.004,285.424 287.587,281.532 C286.17,277.64 281.866,275.633 277.974,277.05 L172.506,315.438 L118.979,273.961 L157.413,259.972 L178.084,272.809 C180.041,274.024 182.446,274.272 184.606,273.486 L241.033,252.948 C243.474,252.059 245.282,249.97 245.81,247.426 C246.339,244.882 245.513,242.246 243.627,240.458 L203.8,202.698 L229.177,193.69 L295.368,230.423 C297.267,231.477 299.529,231.655 301.573,230.913 L355.89,211.143 C365.03,207.813 375.174,212.546 378.501,221.687 C381.828,230.828 377.099,240.972 367.957,244.299 L311.008,265.027 C307.116,266.444 305.109,270.748 306.526,274.64 C307.942,278.533 312.245,280.54 316.139,279.123 L373.088,258.395 C381.282,255.41 387.824,249.416 391.509,241.514 L391.509,241.514 Z" id="Path"></path>
                <path d="M437.02,74.98 C388.668,26.629 324.38,0 256,0 C216.682,0 178.957,8.68 143.875,25.798 C140.152,27.614 138.607,32.105 140.424,35.827 C142.241,39.549 146.73,41.095 150.453,39.278 C169.733,29.871 189.868,23.192 210.652,19.246 L222.961,49.352 C224.486,53.081 224.14,57.36 222.035,60.795 L163.683,156.046 C161.687,159.303 158.372,161.471 154.59,161.994 L86.537,171.406 C72.907,173.291 62.629,185.088 62.629,198.848 L62.629,258.3 C62.629,260.261 62.165,262.226 61.288,263.981 L40.721,305.116 C38.555,309.448 34.201,312.138 29.359,312.138 L21.617,312.138 C17.301,294.12 15,275.325 15,256 C15,175.974 54.601,101.348 120.931,56.377 C124.36,54.053 125.254,49.389 122.93,45.961 C120.606,42.532 115.941,41.637 112.513,43.961 C42.061,91.728 0,170.994 0,256 C0,324.38 26.629,388.667 74.98,437.019 C123.333,485.372 187.62,512 256,512 C300.629,512 344.57,500.341 383.075,478.283 C386.669,476.224 387.913,471.641 385.854,468.047 C383.794,464.452 379.212,463.208 375.618,465.267 C368.613,469.28 361.414,472.923 354.058,476.196 L330.502,459.859 C326.312,456.953 323.162,452.674 321.635,447.811 L317.771,435.515 C314.52,425.175 306.991,416.685 297.112,412.224 L289.12,408.615 C283.845,406.232 279.682,401.989 277.402,396.669 L271.849,383.711 C265.838,369.688 252.098,360.628 236.842,360.628 C222.85,360.628 210.018,368.271 203.353,380.574 L191.522,402.416 C188.72,407.589 184.103,411.462 178.522,413.322 L156.947,420.513 C149.301,423.062 142.774,427.867 138.069,434.411 L122.266,456.388 C76.809,425.953 42.232,380.481 25.72,327.14 L29.359,327.14 C39.92,327.14 49.414,321.272 54.137,311.826 L74.704,270.69 C76.618,266.863 77.629,262.579 77.629,258.301 L77.629,198.85 C77.629,192.54 82.342,187.131 88.592,186.267 L156.645,176.855 C164.894,175.714 172.121,170.987 176.473,163.885 L234.826,68.633 C239.416,61.14 240.171,51.811 236.846,43.677 L225.884,16.865 C235.797,15.638 245.839,15 256,15 C284.553,15 311.956,20.004 337.395,29.159 L337.395,107.811 C337.395,124.579 346.337,140.337 360.732,148.937 L403.711,174.613 C411.535,179.287 417.114,187.081 419.017,195.996 L427.368,235.141 C429.477,245.03 426.838,255.542 420.305,263.262 L376.004,315.618 C368.694,324.257 364.669,335.247 364.669,346.563 L364.669,365.908 C364.669,382.555 373.103,397.752 387.228,406.559 L423.57,429.219 C417.39,435.178 410.871,440.863 403.996,446.221 C400.728,448.767 400.143,453.479 402.689,456.747 C404.168,458.645 406.377,459.638 408.61,459.638 C410.221,459.638 411.845,459.121 413.214,458.054 C443.285,434.623 468.159,404.265 485.147,370.262 C502.965,334.595 512,296.151 512,256 C512,187.62 485.371,123.333 437.02,74.98 Z M150.246,443.169 C153.099,439.202 157.056,436.289 161.69,434.744 L183.265,427.553 C192.472,424.484 200.088,418.095 204.71,409.561 L216.541,387.719 C220.581,380.261 228.359,375.628 236.841,375.628 C246.088,375.628 254.417,381.121 258.061,389.62 L263.614,402.578 C267.377,411.356 274.241,418.354 282.945,422.286 L290.937,425.895 C296.925,428.599 301.49,433.745 303.459,440.013 L307.323,452.308 C309.844,460.331 315.04,467.391 321.952,472.185 L337.374,482.881 C311.405,492.175 283.847,497 256,497 C211.93,497 170.591,485.099 135.011,464.358 L150.246,443.169 Z M434.292,418.228 L395.165,393.831 C385.463,387.781 379.67,377.343 379.67,365.908 L379.67,346.563 C379.67,338.79 382.436,331.241 387.456,325.308 L431.757,272.952 C441.266,261.714 445.11,246.41 442.038,232.012 L433.687,192.867 C430.917,179.888 422.795,168.541 411.404,161.736 L368.425,136.06 C358.537,130.153 352.395,119.328 352.395,107.81 L352.395,35.142 C437.435,72.402 497,157.369 497,256 C497,316.92 474.531,374.191 434.292,418.228 L434.292,418.228 Z" id="Shape"></path>
                <path d="M347.344,348.935 C347.344,344.793 343.987,341.435 339.844,341.435 L324.692,341.435 C320.549,341.435 317.192,344.793 317.192,348.935 C317.192,353.077 320.549,356.435 324.692,356.435 L339.844,356.435 C343.986,356.435 347.344,353.077 347.344,348.935 Z" id="Path"></path>
                <path d="M304.488,373.76 C300.345,373.76 296.988,377.118 296.988,381.26 C296.988,385.402 300.345,388.76 304.488,388.76 L319.64,388.76 C323.783,388.76 327.14,385.402 327.14,381.26 C327.14,377.118 323.783,373.76 319.64,373.76 L304.488,373.76 Z" id="Path"></path>
            </g>
        </g>
    </g>
</svg>